<?xml version="1.0" encoding="utf-8"?><svg xmlns="http://www.w3.org/2000/svg" xmlns:xlink="http://www.w3.org/1999/xlink"><symbol viewBox="0 0 24 24" id="arrow" xmlns="http://www.w3.org/2000/svg"><path d="m12 4 1.41 1.41L7.83 11H20v2H7.83l5.58 5.59L12 20l-8-8z"/></symbol><symbol viewBox="0 0 24 24" id="home" xmlns="http://www.w3.org/2000/svg"><path d="M12 3 2 12h3v9h5v-6h4v6h5v-9h3Z"/></symbol><symbol viewBox="0 0 32 46" fill="none" id="logo" xmlns="http://www.w3.org/2000/svg"><path d="M5.6 28.428c-1.333-5.182-1.333-10.364 0-15.545C6.933 8.737 6.933 5.11 5.6 2m10 26.427c-1.333-7.255-1.333-13.473 0-18.654 1.333-4.146 1.333-7.255 0-9.328m10 27.982c1.333-5.182 1.333-10.364 0-15.545C24.267 8.737 24.267 5.11 25.6 2" stroke="#6B7560" stroke-width="1.65"/><ellipse cx="15.6" cy="37.755" rx="14" ry="7.462" fill="#FAF6F1"/><ellipse cx="15.6" cy="29.125" rx="15" ry="7.773" fill="#D9D9D9" stroke="#A84A32" stroke-width="1.2"/><ellipse opacity=".2" cx="8.6" cy="41.73" rx="4" ry="3.886" fill="#fff"/></symbol><symbol fill="none" viewBox="0 0 6 11" id="next" xmlns="http://www.w3.org/2000/svg"><path d="m0 10.466 3.273-5.284h1.943v.17l-3.443 5.114H0ZM0 0h1.773l3.443 5.114v.17H3.273L0 0Z" fill="#2C2416"/></symbol><symbol fill="none" viewBox="0 0 6 11" id="prev" xmlns="http://www.w3.org/2000/svg"><path d="M5.216 10.466H3.443L0 5.352v-.17h1.943l3.273 5.284ZM5.216 0 1.943 5.284H0v-.17L3.443 0h1.773Z" fill="#2C2416"/></symbol></svg>